# xmcd
# Track frame offsets:
# 150
# 17289
# 32358
# 52107
# 71194
# 89058
# 106835
# 125387
# 148279
# 165216
# 181255
# 196545
# 210219
# 225674
#
# Disc length: 3218 seconds
# Revision: 0
# Processed by: cddbd v1.5.1PL0 Copyright (c) Steve Scherf et al.
# Submitted via: VisiTrax 2.9.10.228 - For more info visit www.synapsa.com
#
DISCID=af0c900e
DTITLE=Volume 6 - Rádio Funga-Funga
DYEAR=1900
DGENRE=
TTITLE0=Vem ficar comigo - Zezé di Camargo e Luciano
TTITLE1=Como um anjo - Zezé di Camargo e Luciano
TTITLE2=Tá escrito em meu olhar - Zezé di Camargo e Luciano
TTITLE3=Sem medo de ser feliz - Zezé di Camargo e Luciano
TTITLE4=Irresistível - Zezé di Camargo e Luciano
TTITLE5=Você vai ver - Zezé di Camargo e Luciano
TTITLE6=Menina veneno - Zezé di Camargo e Luciano
TTITLE7=Pra não pensar em você - Zezé di Camargo e Luciano
TTITLE8=Mexe que é bom - Zezé di Camargo e Luciano
TTITLE9=Fica amor, tá cedo - Rick e Renner
TTITLE10=Cachaça - Rick e Renner
TTITLE11=Caí no laço - Gian e Giovani
TTITLE12=Me dá um beijo - Gian e Giovani
TTITLE13=1,2,3 - Gian e Giovani
EXTD=
EXTT0=
EXTT1=
EXTT2=
EXTT3=
EXTT4=
EXTT5=
EXTT6=
EXTT7=
EXTT8=
EXTT9=
EXTT10=
EXTT11=
EXTT12=
EXTT13=
PLAYORDER=
